<?xml version="1.0" encoding="UTF-8"?>
<svg version="1.1" xmlns="http://www.w3.org/2000/svg" width="722" height="419">
<path d="M0 0 C4.42279807 3.61939071 7.25780012 7.13327448 9.69140625 12.3046875 C9.69140625 12.9646875 9.69140625 13.6246875 9.69140625 14.3046875 C4.74140625 15.7896875 4.74140625 15.7896875 -0.30859375 17.3046875 C-1.11296875 16.1084375 -1.91734375 14.9121875 -2.74609375 13.6796875 C-9.01920215 5.42252621 -18.08322738 0.78655775 -28.30859375 -0.6953125 C-43.4380816 -2.00724799 -58.56154931 -1.79159434 -71.24609375 7.55859375 C-79.54201412 14.58184452 -84.11390078 21.81824777 -85.6484375 32.71875 C-86.0752249 42.38121675 -82.3906786 50.63944767 -76.12109375 57.8046875 C-63.49316146 69.02951621 -48.48489074 72.88647501 -31.74609375 72.1796875 C-18.33258392 70.99450212 -4.47437498 66.62845822 4.69140625 56.3046875 C8.16780987 50.83045193 9.90043542 45.57308539 11.69140625 39.3046875 C-12.06859375 39.3046875 -35.82859375 39.3046875 -60.30859375 39.3046875 C-60.30859375 36.3346875 -60.30859375 33.3646875 -60.30859375 30.3046875 C-33.24859375 30.3046875 -6.18859375 30.3046875 21.69140625 30.3046875 C21.69140625 46.4746875 21.69140625 62.6446875 21.69140625 79.3046875 C18.72140625 79.3046875 15.75140625 79.3046875 12.69140625 79.3046875 C11.76988974 75.61862145 11.39331646 72.3319762 11.12890625 68.5546875 C11.04511719 67.38421875 10.96132813 66.21375 10.875 65.0078125 C10.81441406 64.11578125 10.75382812 63.22375 10.69140625 62.3046875 C10.15773438 62.88476562 9.6240625 63.46484375 9.07421875 64.0625 C-1.74476662 75.40558846 -15.35749782 82.15795863 -31.265625 82.54296875 C-51.60442952 82.92997609 -69.78760247 80.09715504 -85.20947266 65.69189453 C-93.88906638 57.06460502 -97.29909016 47.36958062 -97.62109375 35.4296875 C-97.39329999 22.86083174 -92.81623115 13.00617148 -84.43359375 3.6796875 C-62.52974285 -17.1179083 -23.78296355 -17.46498508 0 0 Z " fill="#131313" transform="translate(463.30859375,225.6953125)"/>
<path d="M0 0 C6.27 0 12.54 0 19 0 C23.19379676 9.73892804 26.76954029 19.61443388 30.25 29.625 C31.06091937 31.94941081 31.87285624 34.27345817 32.68621826 36.59701538 C33.18752875 38.02990958 33.68730926 39.46334021 34.18536377 40.89736938 C35.44076897 44.51114662 35.44076897 44.51114662 37 48 C42.61 32.16 48.22 16.32 54 0 C60.6 0 67.2 0 74 0 C74 23.1 74 46.2 74 70 C69.05 70 64.1 70 59 70 C59 55.15 59 40.3 59 25 C57.85660156 28.16464844 56.71320313 31.32929688 55.53515625 34.58984375 C54.43044262 37.64143929 53.3247661 40.6926843 52.21899414 43.74389648 C51.4487787 45.87080976 50.67957075 47.99808814 49.91137695 50.12573242 C48.80942853 53.17722725 47.70390818 56.22740686 46.59765625 59.27734375 C46.25283707 60.23462875 45.90801788 61.19191376 45.55274963 62.1782074 C45.23249313 63.05904495 44.91223663 63.93988251 44.58227539 64.84741211 C44.30025772 65.62684677 44.01824005 66.40628143 43.72767639 67.20933533 C43 69 43 69 42 70 C38.37 70 34.74 70 31 70 C25.39 54.49 19.78 38.98 14 23 C14.2475 29.06375 14.2475 29.06375 14.5 35.25 C14.95069413 46.84038601 15.119018 58.40235748 15 70 C10.05 70 5.1 70 0 70 C0 46.9 0 23.8 0 0 Z " fill="#0F0F0F" transform="translate(29,124)"/>
<path d="M0 0 C10.291875 -0.061875 20.58375 -0.12375 31.1875 -0.1875 C34.41039795 -0.21481201 37.6332959 -0.24212402 40.95385742 -0.27026367 C43.5460574 -0.27903632 46.13826156 -0.28667841 48.73046875 -0.29296875 C50.04583618 -0.30831665 51.36120361 -0.32366455 52.71643066 -0.33947754 C67.69679866 -0.34366239 81.97163984 2.45272053 93.18359375 13.0078125 C101.47726403 22.10409603 104.76340054 34.16051977 104.28125 46.375 C103.00145772 58.31972792 100.18054688 68.40515687 91.25 76.8125 C78.93494915 86.72518298 64.96766577 88.47329073 49.609375 88.29296875 C48.34367676 88.28994751 47.07797852 88.28692627 45.77392578 88.28381348 C41.0991995 88.26825722 36.42459053 88.22637465 31.75 88.1875 C16.03375 88.0946875 16.03375 88.0946875 0 88 C0 58.96 0 29.92 0 0 Z M11 10 C11 32.77 11 55.54 11 79 C17.97125 79.04125 24.9425 79.0825 32.125 79.125 C35.37947998 79.15231201 35.37947998 79.15231201 38.69970703 79.18017578 C62.63265198 79.56593499 62.63265198 79.56593499 83.41796875 68.88671875 C90.67818032 61.22977431 93 53.46293483 93 43 C92.16404299 32.66809386 89.56644836 24.69439409 81.91796875 17.53515625 C72.94410604 10.35241074 62.69014507 9.70208284 51.625 9.8046875 C50.59117188 9.80670166 49.55734375 9.80871582 48.4921875 9.81079102 C44.66141265 9.82118851 40.83070147 9.84911069 37 9.875 C24.13 9.936875 24.13 9.936875 11 10 Z " fill="#121212" transform="translate(34,217)"/>
<path d="M0 0 C0.92280762 0.00563965 1.84561523 0.0112793 2.79638672 0.01708984 C17.30875389 0.27473602 29.37939717 4.71186856 40.16015625 14.6328125 C42.02644163 16.68524911 43.03368902 18.61552969 43.6875 21.3125 C41.3775 22.9625 39.0675 24.6125 36.6875 26.3125 C33.99622871 25.21605614 32.48985306 24.10936287 30.4375 22 C20.80928181 12.59060495 10.04771306 10.83029881 -2.97192383 10.88647461 C-11.73755368 11.12485487 -18.85748568 13.06571194 -25.3125 19.3125 C-27.06982909 22.82715818 -26.9691346 26.48544785 -26.3125 30.3125 C-18.65235159 40.10046742 0.37040477 39.81850536 11.98510742 41.53662109 C40.14881568 45.73439239 40.14881568 45.73439239 48.6875 56.3125 C51.67504553 62.2580114 51.80671684 69.28465976 50.03515625 75.66015625 C46.06196332 84.51031561 37.99321641 88.88802488 29.3203125 92.22265625 C11.45577235 97.7891434 -9.80707561 95.38490667 -26.3125 87 C-34.35400934 82.32238937 -41.38648908 76.99502414 -45.3125 68.3125 C-45.3125 67.3225 -45.3125 66.3325 -45.3125 65.3125 C-42.3425 63.6625 -39.3725 62.0125 -36.3125 60.3125 C-35.93480469 61.02535156 -35.55710938 61.73820312 -35.16796875 62.47265625 C-28.70505582 73.71842746 -19.56829666 78.76175517 -7.3125 82.3125 C-2.05858254 83.50480867 3.00827677 83.53374328 8.375 83.5625 C9.31794922 83.583125 10.26089844 83.60375 11.23242188 83.625 C21.32163867 83.68047336 30.02349815 81.59890173 37.5625 74.5625 C39.26412934 71.15924132 39.43393127 67.97879479 38.6875 64.3125 C34.32219261 57.91004916 26.61393592 55.82582389 19.31787109 54.39941406 C14.16116637 53.46595414 8.98795148 52.63452215 3.8125 51.8125 C-28.88366457 46.59851349 -28.88366457 46.59851349 -37.1875 37.1875 C-39.42675663 31.46495529 -40.21065686 25.05381092 -38.3125 19.125 C-34.86622881 11.58338412 -29.49348195 6.88836583 -22.1328125 3.3203125 C-14.80275644 0.70098499 -7.75274798 -0.04974265 0 0 Z " fill="#131313" transform="translate(285.3125,213.6875)"/>
<path d="M0 0 C4.40920348 3.20486869 7.81636745 6.59753985 9.57421875 11.87109375 C8.47663368 12.71307682 7.37086558 13.54440046 6.26171875 14.37109375 C5.64683594 14.83515625 5.03195312 15.29921875 4.3984375 15.77734375 C2.57421875 16.87109375 2.57421875 16.87109375 -0.42578125 16.87109375 C-1.8984375 15.296875 -1.8984375 15.296875 -3.48828125 13.18359375 C-9.18842082 6.37475896 -17.85188841 2.51567675 -26.68164062 1.64990234 C-42.8330569 0.77983219 -42.8330569 0.77983219 -57.15625 7.26171875 C-60.16807709 10.46758512 -61.33533656 13.5297487 -61.42578125 17.87109375 C-60.95068909 21.13094685 -60.95068909 21.13094685 -59.42578125 23.87109375 C-51.50041357 27.66137539 -42.44873021 28.94994215 -33.8359375 30.30078125 C-33.07799896 30.41971741 -32.32006042 30.53865356 -31.53915405 30.66119385 C-28.40352468 31.1486527 -25.26731444 31.63085454 -22.12817383 32.09521484 C5.25383718 36.17647498 5.25383718 36.17647498 13.57421875 45.87109375 C17.33775734 51.09148599 17.44988711 56.66563622 16.57421875 62.87109375 C13.93012274 71.40319986 9.05864 75.92918395 1.375 80.05078125 C-14.11751528 87.45906954 -33.7034932 86.90653483 -49.9140625 82.125 C-61.03754572 78.15321122 -71.74157386 72.43055213 -78.05078125 61.99609375 C-79.42578125 58.87109375 -79.42578125 58.87109375 -79.42578125 55.87109375 C-76.45578125 54.22109375 -73.48578125 52.57109375 -70.42578125 50.87109375 C-70.08546875 51.52335937 -69.74515625 52.175625 -69.39453125 52.84765625 C-63.10211575 64.19408633 -54.02884597 69.21616948 -41.79296875 72.9921875 C-36.57702972 74.22909612 -31.38704852 74.20105536 -26.05078125 74.18359375 C-25.07367187 74.19970703 -24.0965625 74.21582031 -23.08984375 74.23242188 C-13.23087017 74.23897704 -5.01152651 72.35058449 2.57421875 65.87109375 C5.17869 62.47395734 5.08603733 59.0387593 4.57421875 54.87109375 C-0.3791921 47.77120487 -9.13227163 45.98363631 -17.21060181 44.52095032 C-21.56949127 43.77521814 -25.93332915 43.06478055 -30.30078125 42.37109375 C-62.77553402 37.1924153 -62.77553402 37.1924153 -70.42578125 28.87109375 C-73.84302004 23.28767308 -74.33619489 17.14429651 -72.9921875 10.8359375 C-70.64392734 3.26608021 -65.4032039 -1.29672733 -58.55078125 -4.94140625 C-40.40901976 -13.9507895 -16.60181874 -10.30687011 0 0 Z " fill="#131313" transform="translate(678.42578125,223.12890625)"/>
<path d="M0 0 C15 0 15 0 20.5 4.5 C22.0372107 6.30224703 23.54031976 8.134405 25 10 C26.13949028 11.29726586 27.28482835 12.58943208 28.4375 13.875 C28.98277344 14.51179687 29.52804687 15.14859375 30.08984375 15.8046875 C32.5083334 18.58421957 35.00278941 21.29146759 37.5 24 C40.5194716 27.27835583 43.52202672 30.56581574 46.4375 33.9375 C49.54964124 37.52958591 52.76872086 41.01551992 56 44.5 C59.78130969 48.57761066 63.50960905 52.68520159 67.14453125 56.89453125 C70.09823596 60.24620881 73.13920572 63.51836182 76.18188477 66.78930664 C78.6369115 69.4445645 80.82221377 72.09628502 83 75 C83.33 50.25 83.66 25.5 84 0 C87.63 0 91.26 0 95 0 C95 29.04 95 58.08 95 88 C80 88 80 88 75.25 83.75 C73.8182432 81.8445793 72.40244334 79.9270984 71 78 C69.21900673 75.95038029 67.36018953 73.9776483 65.5 72 C61.40510267 67.55467668 57.35624438 63.06914696 53.3203125 58.5703125 C50.68920217 55.65571553 48.03347525 52.76460776 45.375 49.875 C42.3977736 46.63786909 39.44047034 43.38862144 36.5625 40.0625 C33.03168179 35.98978163 29.37143383 32.04094693 25.70141602 28.09399414 C21.07576769 23.11162407 16.55051686 18.05612985 12 13 C11.67 37.75 11.34 62.5 11 88 C7.37 88 3.74 88 0 88 C0 58.96 0 29.92 0 0 Z " fill="#161616" transform="translate(495,217)"/>
<path d="M0 0 C28.38 0 56.76 0 86 0 C86 3.3 86 6.6 86 10 C61.25 10 36.5 10 11 10 C11 19.24 11 28.48 11 38 C34.1 38 57.2 38 81 38 C81 40.97 81 43.94 81 47 C57.9 47 34.8 47 11 47 C11 57.56 11 68.12 11 79 C36.08 79 61.16 79 87 79 C87 81.97 87 84.94 87 88 C58.29 88 29.58 88 0 88 C0 58.96 0 29.92 0 0 Z " fill="#0D0D0D" transform="translate(148,217)"/>
<path d="M0 0 C38 0 38 0 45.8125 4.6875 C50.66283437 9.81499633 52.26223451 14.42442703 52.5 21.5 C52.29906729 27.10018905 51.60815271 31.59119092 48 36 C45.75490707 37.96145164 43.55527721 39.42752172 41 41 C42.38791064 44.63472982 44.00220365 48.04573902 45.8203125 51.484375 C46.35527344 52.50144531 46.89023438 53.51851562 47.44140625 54.56640625 C47.99699219 55.61699219 48.55257812 56.66757813 49.125 57.75 C50.23361007 59.84798748 51.34048207 61.94689465 52.4453125 64.046875 C52.93531738 64.97338867 53.42532227 65.89990234 53.93017578 66.85449219 C55 69 55 69 55 70 C49.39 70 43.78 70 38 70 C36.372519 66.77206258 34.74793508 63.54272203 33.125 60.3125 C32.66480469 59.40048828 32.20460937 58.48847656 31.73046875 57.54882812 C31.28574219 56.66259766 30.84101563 55.77636719 30.3828125 54.86328125 C29.97434082 54.05157471 29.56586914 53.23986816 29.14501953 52.40356445 C27.99186055 49.98291409 26.99580664 47.48951661 26 45 C22.37 45 18.74 45 15 45 C15 53.25 15 61.5 15 70 C10.05 70 5.1 70 0 70 C0 46.9 0 23.8 0 0 Z M15 12 C15 18.93 15 25.86 15 33 C25.47845091 33.62358665 25.47845091 33.62358665 35 30 C37.40429585 27.04927328 37.41492653 23.70870139 37.32421875 19.96875 C36.80595067 16.82167637 35.27224598 15.14240335 33 13 C29.37918537 11.79306179 26.0749281 11.89217921 22.3125 11.9375 C19.899375 11.958125 17.48625 11.97875 15 12 Z " fill="#0C0C0C" transform="translate(183,124)"/>
<path d="M0 0 C4.95 0 9.9 0 15 0 C15 9.24 15 18.48 15 28 C23.91 28 32.82 28 42 28 C42 18.76 42 9.52 42 0 C46.95 0 51.9 0 57 0 C57 23.1 57 46.2 57 70 C52.05 70 47.1 70 42 70 C42 60.1 42 50.2 42 40 C33.09 40 24.18 40 15 40 C15 49.9 15 59.8 15 70 C10.05 70 5.1 70 0 70 C0 46.9 0 23.8 0 0 Z " fill="#0C0C0C" transform="translate(639,124)"/>
<path d="M0 0 C7.86251525 4.84582103 12.24716869 11.45362757 14.77832031 20.21557617 C17.15170398 31.14026611 16.73561566 45.57416533 11.25 55.38671875 C10.91097656 56.04414063 10.57195312 56.7015625 10.22265625 57.37890625 C6.75986733 63.12146724 0.63408668 66.89214374 -5.640625 69.03125 C-15.90524112 70.7610279 -24.31920426 69.68950572 -32.8984375 63.94921875 C-39.58381722 58.77985451 -42.97727845 51.55624001 -44.75 43.38671875 C-45.7543294 30.77325453 -45.92347115 17.36526826 -37.48828125 7.171875 C-27.45758391 -3.12931306 -13.36532073 -6.26499409 0 0 Z M-23.75 12.38671875 C-30.53617136 20.49242343 -30.48651808 30.29075551 -29.75 40.38671875 C-28.69844704 46.18177336 -27.13960504 51.25532577 -22.75 55.38671875 C-18.78661434 57.63620791 -15.25178498 57.78866384 -10.75 57.38671875 C-6.62885886 55.56574941 -4.21840555 53.13188579 -1.75 49.38671875 C0.14421207 43.98821436 0.60420015 39.16089742 0.5625 33.51171875 C0.55686035 32.71741455 0.5512207 31.92311035 0.54541016 31.10473633 C0.39048225 23.63368295 -0.34097713 18.13988774 -5.375 12.38671875 C-11.59821177 8.69888955 -17.65604661 7.99340352 -23.75 12.38671875 Z " fill="#0F0F0F" transform="translate(431.75,125.61328125)"/>
<path d="M0 0 C4.95 0 9.9 0 15 0 C15.33 9.57 15.66 19.14 16 29 C17.77375 26.628125 19.5475 24.25625 21.375 21.8125 C22.49599355 20.3501836 23.61707021 18.8879309 24.73828125 17.42578125 C26.79320182 14.70859455 28.65101742 11.99151236 30.35546875 9.04296875 C32.5427996 5.43067613 34.58659521 2.59592695 38 0 C44.25935811 -1.49363448 50.68072395 -0.75909168 57 0 C52.35083988 6.2826488 47.54011824 12.42835986 42.703125 18.56640625 C39.44911214 22.69570738 36.22239147 26.84600218 33 31 C36.79197545 37.03721392 40.65355362 43.02233386 44.62109375 48.9453125 C45.0144693 49.53262146 45.40784485 50.11993042 45.81314087 50.72503662 C47.43830823 53.14896885 49.0653057 55.57166198 50.6940918 57.99316406 C51.90089899 59.78839884 53.10491947 61.58547626 54.30859375 63.3828125 C55.01814209 64.43871582 55.72769043 65.49461914 56.45874023 66.58251953 C58 69 58 69 58 70 C42.13603473 71.51085384 42.13603473 71.51085384 37.59765625 68.30078125 C35.79297342 65.63126263 34.4287112 62.88901553 33 60 C31.25187911 57.28892529 29.40130133 54.65013097 27.5625 52 C23 45.32840442 23 45.32840442 23 43 C19.41688588 45.22448506 16.47320772 47.2634137 15.32861328 51.46386719 C15.08862953 54.28583256 15.02988466 57.04322131 15.0625 59.875 C15.04638672 60.84953125 15.03027344 61.8240625 15.01367188 62.828125 C14.97851936 65.21849588 14.98508549 67.60941718 15 70 C10.05 70 5.1 70 0 70 C0 46.9 0 23.8 0 0 Z " fill="#0F0F0F" transform="translate(246,124)"/>
<path d="M0 0 C4.81843686 5.10187432 6.125 9.21846578 6.125 16.25 C1.175 16.25 -3.775 16.25 -8.875 16.25 C-9.308125 15.13625 -9.74125 14.0225 -10.1875 12.875 C-11.57411119 9.07487666 -11.57411119 9.07487666 -14.875 7.25 C-19.73789148 6.61151348 -24.30226436 6.3564002 -28.625 8.8125 C-30.10933474 11.31498856 -30.10933474 11.31498856 -30.125 14.75 C-29.18179564 18.48351862 -29.18179564 18.48351862 -25.8125 20.3125 C-22.9430937 21.53705676 -20.01129665 22.5534388 -17.06640625 23.578125 C-7.78087019 26.8429475 -0.84503123 29.79120706 5.125 38 C6.82283997 43.51797989 7.34187368 49.12461075 5.2109375 54.59765625 C1.9877647 60.16022867 -1.97180075 63.2845988 -8.1171875 65.328125 C-18.18183924 67.79720796 -28.67396887 67.15318106 -37.875 62.25 C-42.66128081 59.11780153 -45.96593274 55.75260563 -47.875 50.25 C-47.875 47.94 -47.875 45.63 -47.875 43.25 C-42.925 43.25 -37.975 43.25 -32.875 43.25 C-32.215 45.56 -31.555 47.87 -30.875 50.25 C-27.35308979 53.24515494 -24.35965482 53.68175138 -19.8125 53.6875 C-18.79027344 53.70683594 -17.76804687 53.72617188 -16.71484375 53.74609375 C-13.18466421 53.12940489 -11.99146932 52.10241188 -9.875 49.25 C-9.70914809 45.66094915 -9.70914809 45.66094915 -10.875 42.25 C-14.15399712 39.06791905 -18.27008398 37.89636421 -22.5 36.4375 C-40.60645048 29.8544548 -40.60645048 29.8544548 -45.09765625 21.52734375 C-47.05844164 15.78293227 -46.86977231 10.31606556 -44.25 4.875 C-32.05243183 -8.60652271 -15.17406394 -9.23638675 0 0 Z " fill="#101010" transform="translate(502.875,128.75)"/>
<path d="M0 0 C2.53833008 0.02286784 5.07666016 0.04573568 7.61499023 0.06860352 C8.67919189 0.07819092 9.74339355 0.08777832 10.83984375 0.09765625 C16.47442755 13.99176272 21.8757573 27.963598 27.13378906 42.00439453 C28.36249799 45.28310731 29.59714065 48.55954866 30.83203125 51.8359375 C31.61623951 53.9256484 32.40010723 56.01548714 33.18359375 58.10546875 C33.55222534 59.0823465 33.92085693 60.05922424 34.30065918 61.06570435 C34.63521118 61.96199554 34.96976318 62.85828674 35.31445312 63.78173828 C35.61009155 64.56968781 35.90572998 65.35763733 36.21032715 66.16946411 C36.83984375 68.09765625 36.83984375 68.09765625 36.83984375 70.09765625 C31.55984375 70.09765625 26.27984375 70.09765625 20.83984375 70.09765625 C19.18984375 65.80765625 17.53984375 61.51765625 15.83984375 57.09765625 C7.58984375 56.76765625 -0.66015625 56.43765625 -9.16015625 56.09765625 C-10.15015625 59.72765625 -11.14015625 63.35765625 -12.16015625 67.09765625 C-12.49015625 68.08765625 -12.82015625 69.07765625 -13.16015625 70.09765625 C-18.44015625 70.09765625 -23.72015625 70.09765625 -29.16015625 70.09765625 C-28.33719535 65.98285177 -27.32147973 62.56930824 -25.859375 58.67089844 C-25.62674957 58.04754608 -25.39412415 57.42419373 -25.15444946 56.7819519 C-24.38929665 54.73470734 -23.61863342 52.68958878 -22.84765625 50.64453125 C-22.31313903 49.21927328 -21.77888173 47.79391782 -21.24487305 46.36846924 C-20.12758707 43.38860919 -19.00765404 40.40976203 -17.88574219 37.43164062 C-16.44532077 33.60759424 -15.01078687 29.78137169 -13.57810974 25.95441818 C-12.47698294 23.0146558 -11.37315898 20.07591218 -10.26846313 17.13748932 C-9.73822349 15.7263111 -9.2087425 14.3148476 -8.68002319 12.90309906 C-7.94301461 10.9366542 -7.20248514 8.9715728 -6.4609375 7.00683594 C-5.82925659 5.3273587 -5.82925659 5.3273587 -5.18481445 3.61395264 C-3.76050196 0.11620834 -3.76050196 0.11620834 0 0 Z M2.83984375 20.09765625 C1.66583787 23.53269397 0.50191166 26.97106339 -0.66015625 30.41015625 C-0.99402344 31.38662109 -1.32789063 32.36308594 -1.671875 33.36914062 C-1.98769531 34.30693359 -2.30351562 35.24472656 -2.62890625 36.2109375 C-2.92216797 37.07501221 -3.21542969 37.93908691 -3.51757812 38.8293457 C-4.29643597 41.18579728 -4.29643597 41.18579728 -4.16015625 44.09765625 C1.11984375 44.09765625 6.39984375 44.09765625 11.83984375 44.09765625 C10.28186605 38.177341 8.64410367 32.30365913 6.77734375 26.47265625 C6.45636719 25.46976563 6.13539063 24.466875 5.8046875 23.43359375 C5.0743261 20.94158233 5.0743261 20.94158233 2.83984375 20.09765625 Z " fill="#0F0F0F" transform="translate(139.16015625,123.90234375)"/>
<path d="M0 0 C15.51 0 31.02 0 47 0 C47 3.96 47 7.92 47 12 C36.44 12 25.88 12 15 12 C15 17.28 15 22.56 15 28 C24.24 28 33.48 28 43 28 C43 31.63 43 35.26 43 39 C42 40 42 40 39.40795898 40.11352539 C38.28204346 40.10828857 37.15612793 40.10305176 35.99609375 40.09765625 C34.78115234 40.09443359 33.56621094 40.09121094 32.31445312 40.08789062 C31.03505859 40.07951172 29.75566406 40.07113281 28.4375 40.0625 C27.15423828 40.05798828 25.87097656 40.05347656 24.54882812 40.04882812 C21.3658658 40.03699555 18.18292726 40.01905944 15 40 C15 45.94 15 51.88 15 58 C18.44759766 57.98259766 18.44759766 57.98259766 21.96484375 57.96484375 C24.18220888 57.95705291 26.39957251 57.95097631 28.61694336 57.94506836 C30.16219766 57.9400286 31.70744716 57.9331968 33.25268555 57.92456055 C35.46925029 57.91247924 37.68575218 57.90676827 39.90234375 57.90234375 C40.5971434 57.89718246 41.29194305 57.89202118 42.00779724 57.88670349 C43.6722933 57.88650723 45.33665499 57.93810871 47 58 C49.83823106 60.83823106 48 65.98613514 48 70 C32.16 70 16.32 70 0 70 C0 46.9 0 23.8 0 0 Z " fill="#0C0C0C" transform="translate(519,124)"/>
<path d="M0 0 C37.94285714 0 37.94285714 0 47.3125 6.1875 C52.18986464 11.29171881 54.20668811 16.51323748 54.5 23.5625 C54.195618 30.59274231 51.90584885 35.47974109 46.8125 40.3125 C39.86986032 45.61464397 32.44143764 46.44273106 23.9375 46.1875 C19.5134375 46.0946875 19.5134375 46.0946875 15 46 C15 53.92 15 61.84 15 70 C10.05 70 5.1 70 0 70 C0 46.9 0 23.8 0 0 Z M15 12 C15 19.26 15 26.52 15 34 C17.536875 34.061875 20.07375 34.12375 22.6875 34.1875 C23.87218872 34.22846802 23.87218872 34.22846802 25.08081055 34.27026367 C29.6231239 34.32367563 32.4015272 33.78764373 36 31 C37.95681804 28.71704562 38.94374166 27.10941448 39.09765625 24.07421875 C38.73058429 19.32018927 37.50368278 16.40063328 34 13 C30.23508833 11.74502944 26.72793525 11.89338352 22.8125 11.9375 C20.234375 11.958125 17.65625 11.97875 15 12 Z " fill="#0C0C0C" transform="translate(575,124)"/>
<path d="M0 0 C4.95 0 9.9 0 15 0 C15.09932908 7.36486944 15.17168728 14.72934363 15.21972656 22.09472656 C15.23976603 24.59707436 15.26700522 27.09937578 15.30175781 29.6015625 C15.3506124 33.21105437 15.37304645 36.81992379 15.390625 40.4296875 C15.41127014 41.53738495 15.43191528 42.6450824 15.45318604 43.78634644 C15.45518142 50.7894089 14.64497369 56.8926913 11 63 C5.16589724 68.71147878 -0.61855374 71.28539764 -8.8125 71.3125 C-16.12060462 71.19018863 -21.08582477 70.46085908 -26.8125 65.625 C-31.49546152 60.00544617 -32.46162954 56.21416413 -33 49 C-28.05 49 -23.1 49 -18 49 C-17.28385417 51.05078125 -16.56770833 53.1015625 -15.8515625 55.15234375 C-15.14728587 57.18682116 -15.14728587 57.18682116 -13 58 C-7.72922847 58.54764867 -7.72922847 58.54764867 -3.0625 56.6875 C-1.02538682 53.45208494 -0.85771829 50.60537912 -0.79467773 46.88598633 C-0.77473251 45.84513382 -0.75478729 44.80428131 -0.73423767 43.73188782 C-0.71752518 42.60993515 -0.70081268 41.48798248 -0.68359375 40.33203125 C-0.66281265 39.18208176 -0.64203156 38.03213226 -0.62062073 36.84733582 C-0.55516658 33.16911875 -0.49625926 29.49082952 -0.4375 25.8125 C-0.39431087 23.32095604 -0.35069645 20.82941941 -0.30664062 18.33789062 C-0.19948935 12.22533462 -0.09821003 6.11270594 0 0 Z " fill="#101010" transform="translate(362,124)"/>
<path d="M0 0 C3.3 0 6.6 0 10 0 C10 29.04 10 58.08 10 88 C6.7 88 3.4 88 0 88 C0 58.96 0 29.92 0 0 Z " fill="#090909" transform="translate(345,217)"/>
</svg>
